<?xml version="1.0" ?><svg height="100" id="svg2" version="1.1" viewBox="0 0 99.999995 99.999995" width="100" xmlns="http://www.w3.org/2000/svg" xmlns:cc="http://creativecommons.org/ns#" xmlns:dc="http://purl.org/dc/elements/1.1/" xmlns:inkscape="http://www.inkscape.org/namespaces/inkscape" xmlns:rdf="http://www.w3.org/1999/02/22-rdf-syntax-ns#" xmlns:sodipodi="http://sodipodi.sourceforge.net/DTD/sodipodi-0.dtd" xmlns:svg="http://www.w3.org/2000/svg"><defs id="defs4"><filter id="filter4510" style="color-interpolation-filters:sRGB"><feFlood flood-color="rgb(0,0,0)" flood-opacity="0.470588" id="feFlood4512" result="flood"/><feComposite id="feComposite4514" in="flood" in2="SourceGraphic" operator="in" result="composite1"/><feGaussianBlur id="feGaussianBlur4516" in="composite1" result="blur" stdDeviation="5"/><feOffset dx="0" dy="4.7" id="feOffset4518" result="offset"/><feComposite id="feComposite4520" in="SourceGraphic" in2="offset" operator="over" result="composite2"/></filter><filter id="filter5064" style="color-interpolation-filters:sRGB"><feFlood flood-color="rgb(206,242,245)" flood-opacity="0.835294" id="feFlood5066" result="flood"/><feComposite id="feComposite5068" in="flood" in2="SourceGraphic" operator="out" result="composite1"/><feGaussianBlur id="feGaussianBlur5070" in="composite1" result="blur" stdDeviation="5.9"/><feOffset dx="0" dy="-8.1" id="feOffset5072" result="offset"/><feComposite id="feComposite5074" in="offset" in2="SourceGraphic" operator="atop" result="composite2"/></filter><filter id="filter5364" style="color-interpolation-filters:sRGB"><feFlood flood-color="rgb(0,0,0)" flood-opacity="0.835294" id="feFlood5366" result="flood"/><feComposite id="feComposite5368" in="flood" in2="SourceGraphic" operator="in" result="composite1"/><feGaussianBlur id="feGaussianBlur5370" in="composite1" result="blur" stdDeviation="5"/><feOffset dx="0" dy="4.2" id="feOffset5372" result="offset"/><feComposite id="feComposite5374" in="SourceGraphic" in2="offset" operator="over" result="fbSourceGraphic"/><feColorMatrix id="feColorMatrix5592" in="fbSourceGraphic" result="fbSourceGraphicAlpha" values="0 0 0 -1 0 0 0 0 -1 0 0 0 0 -1 0 0 0 0 1 0"/><feFlood flood-color="rgb(254,255,189)" flood-opacity="1" id="feFlood5594" in="fbSourceGraphic" result="flood"/><feComposite id="feComposite5596" in="flood" in2="fbSourceGraphic" operator="out" result="composite1"/><feGaussianBlur id="feGaussianBlur5598" in="composite1" result="blur" stdDeviation="7.6"/><feOffset dx="0" dy="-8.1" id="feOffset5600" result="offset"/><feComposite id="feComposite5602" in="offset" in2="fbSourceGraphic" operator="atop" result="composite2"/></filter><filter id="filter4400" style="color-interpolation-filters:sRGB"><feFlood flood-color="rgb(0,0,0)" flood-opacity="0.470588" id="feFlood4402" result="flood"/><feComposite id="feComposite4404" in="flood" in2="SourceGraphic" operator="in" result="composite1"/><feGaussianBlur id="feGaussianBlur4406" in="composite1" result="blur" stdDeviation="5"/><feOffset dx="0" dy="5" id="feOffset4408" result="offset"/><feComposite id="feComposite4410" in="SourceGraphic" in2="offset" operator="over" result="fbSourceGraphic"/><feColorMatrix id="feColorMatrix4640" in="fbSourceGraphic" result="fbSourceGraphicAlpha" values="0 0 0 -1 0 0 0 0 -1 0 0 0 0 -1 0 0 0 0 1 0"/><feFlood flood-color="rgb(255,253,180)" flood-opacity="1" id="feFlood4642" in="fbSourceGraphic" result="flood"/><feComposite id="feComposite4644" in="flood" in2="fbSourceGraphic" operator="out" result="composite1"/><feGaussianBlur id="feGaussianBlur4646" in="composite1" result="blur" stdDeviation="5"/><feOffset dx="0" dy="-5" id="feOffset4648" result="offset"/><feComposite id="feComposite4650" in="offset" in2="fbSourceGraphic" operator="atop" result="composite2"/></filter><filter id="filter4678" style="color-interpolation-filters:sRGB"><feFlood flood-color="rgb(255,253,180)" flood-opacity="1" id="feFlood4680" result="flood"/><feComposite id="feComposite4682" in="flood" in2="SourceGraphic" operator="out" result="composite1"/><feGaussianBlur id="feGaussianBlur4684" in="composite1" result="blur" stdDeviation="5"/><feOffset dx="0" dy="-7" id="feOffset4686" result="offset"/><feComposite id="feComposite4688" in="offset" in2="SourceGraphic" operator="atop" result="composite2"/></filter><filter id="filter5045" style="color-interpolation-filters:sRGB"><feFlood flood-color="rgb(255,250,175)" flood-opacity="1" id="feFlood5047" result="flood"/><feComposite id="feComposite5049" in="flood" in2="SourceGraphic" operator="out" result="composite1"/><feGaussianBlur id="feGaussianBlur5051" in="composite1" result="blur" stdDeviation="5"/><feOffset dx="0" dy="-6" id="feOffset5053" result="offset"/><feComposite id="feComposite5055" in="offset" in2="SourceGraphic" operator="atop" result="composite2"/></filter><filter id="filter4607" style="color-interpolation-filters:sRGB;"><feFlood flood-color="rgb(255,247,180)" flood-opacity="1" id="feFlood4609" result="flood"/><feComposite id="feComposite4611" in="flood" in2="SourceGraphic" operator="out" result="composite1"/><feGaussianBlur id="feGaussianBlur4613" in="composite1" result="blur" stdDeviation="5"/><feOffset dx="0" dy="-6" id="feOffset4615" result="offset"/><feComposite id="feComposite4617" in="offset" in2="SourceGraphic" operator="atop" result="composite2"/></filter><filter id="filter4507" style="color-interpolation-filters:sRGB;"><feFlood flood-color="rgb(255,249,199)" flood-opacity="1" id="feFlood4509" result="flood"/><feComposite id="feComposite4511" in="flood" in2="SourceGraphic" operator="out" result="composite1"/><feGaussianBlur id="feGaussianBlur4513" in="composite1" result="blur" stdDeviation="3"/><feOffset dx="0" dy="-2.60417" id="feOffset4515" result="offset"/><feComposite id="feComposite4517" in="offset" in2="SourceGraphic" operator="atop" result="fbSourceGraphic"/><feColorMatrix id="feColorMatrix4687" in="fbSourceGraphic" result="fbSourceGraphicAlpha" values="0 0 0 -1 0 0 0 0 -1 0 0 0 0 -1 0 0 0 0 1 0"/><feFlood flood-color="rgb(255,244,153)" flood-opacity="1" id="feFlood4689" in="fbSourceGraphic" result="flood"/><feComposite id="feComposite4691" in="flood" in2="fbSourceGraphic" operator="out" result="composite1"/><feGaussianBlur id="feGaussianBlur4693" in="composite1" result="blur" stdDeviation="3.4"/><feOffset dx="0" dy="-3.9" id="feOffset4695" result="offset"/><feComposite id="feComposite4697" in="offset" in2="fbSourceGraphic" operator="atop" result="composite2"/></filter></defs><g id="layer3" style="display:inline" transform="translate(0,-99.999988)"><path d="M 20 0 C 8.9199662 0 0 8.9199662 0 20 L 0 80 C 0 91.080026 8.9199662 100 20 100 L 80 100 C 91.080026 100 100 91.080026 100 80 L 100 20 C 100 8.9199662 91.080026 0 80 0 L 20 0 z M 50.001953 9.9296875 A 6.8253861 4.8020962 0 0 1 56.826172 14.732422 A 6.8253861 4.8020962 0 0 1 56.716797 15.564453 C 65.930402 18.422903 72.660597 27.01737 72.654297 37.076172 L 72.654297 37.029297 C 72.75322 44.673169 73.636414 51.172629 74.84375 56.056641 C 76.051087 60.940641 77.823783 64.279508 78.550781 65.048828 C 79.225668 65.763028 80.791066 66.679439 82.505859 68.324219 C 84.220653 69.968999 85.871011 72.844849 85.705078 76.318359 L 85.546875 79.646484 L 17.798828 79.746094 L 14.457031 79.751953 L 14.296875 76.414062 C 14.130943 72.940552 15.781303 70.064702 17.496094 68.419922 C 19.210885 66.775132 20.776283 65.856768 21.451172 65.142578 C 22.178169 64.373258 23.950835 61.035603 25.162109 56.144531 C 26.370927 51.263371 27.262297 44.763013 27.378906 37.113281 C 27.401742 27.048609 34.104074 18.462456 43.287109 15.583984 A 6.8253861 4.8020962 0 0 1 43.175781 14.732422 A 6.8253861 4.8020962 0 0 1 50.001953 9.9296875 z M 50.03125 21.554688 C 41.358457 21.554688 34.398426 28.524004 34.378906 37.128906 L 34.378906 37.150391 L 34.378906 37.173828 C 34.258101 45.32395 33.322337 52.315063 31.957031 57.828125 C 30.591723 63.341187 29.039218 67.305442 26.539062 69.951172 C 25.204297 71.363652 24.130033 72.030461 23.214844 72.738281 L 76.808594 72.660156 C 75.89273 71.949856 74.806197 71.276989 73.462891 69.855469 C 70.962733 67.209747 69.410478 63.24457 68.048828 57.736328 C 66.68718 52.228096 65.759493 45.247753 65.654297 37.119141 L 65.654297 37.095703 L 65.654297 37.072266 C 65.659639 28.529174 58.704042 21.554687 50.03125 21.554688 z M 43.667969 81.394531 L 56.324219 81.394531 A 6.4617493 7.2286901 0 0 1 56.462891 82.841797 A 6.4617493 7.2286901 0 0 1 49.998047 90.070312 A 6.4617493 7.2286901 0 0 1 43.539062 82.841797 A 6.4617493 7.2286901 0 0 1 43.667969 81.394531 z " id="rect4208" style="opacity:1;fill:#000000;fill-opacity:1;fill-rule:nonzero;stroke:none;stroke-width:3.79999995;stroke-linecap:round;stroke-linejoin:round;stroke-miterlimit:4;stroke-dasharray:none;stroke-dashoffset:0;stroke-opacity:1" transform="translate(0,99.999988)"/></g></svg>